<mxfile host="app.diagrams.net" agent="Mozilla/5.0 (Windows NT 10.0; Win64; x64) AppleWebKit/537.36 (KHTML, like Gecko) Chrome/130.0.0.0 Safari/537.36" version="24.8.4">
  <diagram id="R2lEEEUBdFMjLlhIrx00" name="Page-1">
    <mxGraphModel dx="2658" dy="1616" grid="1" gridSize="10" guides="1" tooltips="1" connect="1" arrows="1" fold="1" page="1" pageScale="1" pageWidth="850" pageHeight="1100" math="0" shadow="0" extFonts="Permanent Marker^https://fonts.googleapis.com/css?family=Permanent+Marker">
      <root>
        <mxCell id="0" />
        <mxCell id="1" parent="0" />
        <mxCell id="3GmIEutji8pc6yviIONt-1" value="&lt;ul&gt;&lt;li&gt;&lt;strong&gt;광운대 강의 종합 서비스 (광평) - 광운대 평소 / 광운대 평균 / 광운대 평가&lt;/strong&gt;&lt;/li&gt;&lt;li&gt;&lt;br&gt;&lt;/li&gt;&lt;li&gt;광운대에게 청원을 잘 못함 → 광운 신문고 (총학, &lt;strong style=&quot;background-color: initial;&quot;&gt;비마랑&lt;/strong&gt;&lt;span style=&quot;background-color: initial;&quot;&gt; 등)&lt;/span&gt;&lt;ul&gt;&lt;br&gt;&lt;li&gt;&lt;a href=&quot;http://kw.op.gg&quot;&gt;kw.op.gg&lt;/a&gt;: 교수 전적 사이트 - 광교수넷&lt;/li&gt;&lt;br&gt;&lt;li&gt;어떤 강의실에 마이크 안 되고 얼마나 수용할 수 있는지 등 파악 어려움&lt;/li&gt;&lt;br&gt;&lt;li&gt;시설 대여의 어려움 + 풋살 / 농구 등&lt;/li&gt;&lt;/ul&gt;&lt;/li&gt;&lt;/ul&gt;" style="rounded=0;whiteSpace=wrap;html=1;" vertex="1" parent="1">
          <mxGeometry x="-725" y="70" width="490" height="150" as="geometry" />
        </mxCell>
        <mxCell id="3GmIEutji8pc6yviIONt-5" value="" style="edgeStyle=orthogonalEdgeStyle;rounded=0;orthogonalLoop=1;jettySize=auto;html=1;entryX=0;entryY=0.5;entryDx=0;entryDy=0;" edge="1" parent="1" source="3GmIEutji8pc6yviIONt-3" target="3GmIEutji8pc6yviIONt-102">
          <mxGeometry relative="1" as="geometry">
            <mxPoint x="-380" y="480" as="targetPoint" />
          </mxGeometry>
        </mxCell>
        <mxCell id="3GmIEutji8pc6yviIONt-10" value="" style="edgeStyle=orthogonalEdgeStyle;rounded=0;orthogonalLoop=1;jettySize=auto;html=1;entryX=1;entryY=0.5;entryDx=0;entryDy=0;" edge="1" parent="1" source="3GmIEutji8pc6yviIONt-3" target="3GmIEutji8pc6yviIONt-110">
          <mxGeometry relative="1" as="geometry">
            <mxPoint x="-920" y="480" as="targetPoint" />
          </mxGeometry>
        </mxCell>
        <mxCell id="3GmIEutji8pc6yviIONt-15" value="" style="edgeStyle=orthogonalEdgeStyle;rounded=0;orthogonalLoop=1;jettySize=auto;html=1;exitX=0.5;exitY=1;exitDx=0;exitDy=0;" edge="1" parent="1" source="3GmIEutji8pc6yviIONt-14" target="3GmIEutji8pc6yviIONt-3">
          <mxGeometry relative="1" as="geometry">
            <mxPoint x="-480" y="430" as="sourcePoint" />
          </mxGeometry>
        </mxCell>
        <mxCell id="3GmIEutji8pc6yviIONt-3" value="메인화면" style="whiteSpace=wrap;html=1;aspect=fixed;gradientColor=none;" vertex="1" parent="1">
          <mxGeometry x="-520" y="440" width="80" height="80" as="geometry" />
        </mxCell>
        <mxCell id="3GmIEutji8pc6yviIONt-12" value="" style="edgeStyle=orthogonalEdgeStyle;rounded=0;orthogonalLoop=1;jettySize=auto;html=1;entryX=0.5;entryY=0;entryDx=0;entryDy=0;exitX=0.5;exitY=1;exitDx=0;exitDy=0;" edge="1" parent="1" source="3GmIEutji8pc6yviIONt-3">
          <mxGeometry relative="1" as="geometry">
            <mxPoint x="-470" y="530" as="sourcePoint" />
            <mxPoint x="-480" y="650" as="targetPoint" />
            <Array as="points">
              <mxPoint x="-480" y="580" />
              <mxPoint x="-480" y="580" />
            </Array>
          </mxGeometry>
        </mxCell>
        <mxCell id="3GmIEutji8pc6yviIONt-14" value="login" style="whiteSpace=wrap;html=1;aspect=fixed;" vertex="1" parent="1">
          <mxGeometry x="-520" y="280" width="80" height="80" as="geometry" />
        </mxCell>
        <mxCell id="3GmIEutji8pc6yviIONt-2" value="&lt;font style=&quot;font-size: 25px;&quot;&gt;Flowchart&lt;/font&gt;" style="rounded=0;whiteSpace=wrap;html=1;fontStyle=1" vertex="1" parent="1">
          <mxGeometry x="-547.5" y="238" width="135" height="60" as="geometry" />
        </mxCell>
        <mxCell id="3GmIEutji8pc6yviIONt-16" value="" style="rounded=0;whiteSpace=wrap;html=1;" vertex="1" parent="1">
          <mxGeometry x="-90" y="-250" width="120" height="60" as="geometry" />
        </mxCell>
        <mxCell id="3GmIEutji8pc6yviIONt-19" value="" style="rounded=0;whiteSpace=wrap;html=1;" vertex="1" parent="1">
          <mxGeometry x="-700" y="820" width="120" height="60" as="geometry" />
        </mxCell>
        <mxCell id="3GmIEutji8pc6yviIONt-20" value="" style="rounded=0;whiteSpace=wrap;html=1;" vertex="1" parent="1">
          <mxGeometry x="-540" y="820" width="120" height="60" as="geometry" />
        </mxCell>
        <mxCell id="3GmIEutji8pc6yviIONt-21" value="" style="rounded=0;whiteSpace=wrap;html=1;" vertex="1" parent="1">
          <mxGeometry x="-390" y="820" width="120" height="60" as="geometry" />
        </mxCell>
        <mxCell id="3GmIEutji8pc6yviIONt-61" value="models(login-main)" style="swimlane;fontStyle=2;align=center;verticalAlign=top;childLayout=stackLayout;horizontal=1;startSize=26;horizontalStack=0;resizeParent=1;resizeLast=0;collapsible=1;marginBottom=0;rounded=0;shadow=0;strokeWidth=1;fillColor=#d5e8d4;strokeColor=#82b366;" vertex="1" collapsed="1" parent="1">
          <mxGeometry x="-210" y="52" width="160" height="26" as="geometry">
            <mxRectangle x="-210" y="52" width="160" height="186" as="alternateBounds" />
          </mxGeometry>
        </mxCell>
        <mxCell id="3GmIEutji8pc6yviIONt-62" value="title" style="text;align=left;verticalAlign=top;spacingLeft=4;spacingRight=4;overflow=hidden;rotatable=0;points=[[0,0.5],[1,0.5]];portConstraint=eastwest;" vertex="1" parent="3GmIEutji8pc6yviIONt-61">
          <mxGeometry y="26" width="160" height="26" as="geometry" />
        </mxCell>
        <mxCell id="3GmIEutji8pc6yviIONt-63" value="description" style="text;align=left;verticalAlign=top;spacingLeft=4;spacingRight=4;overflow=hidden;rotatable=0;points=[[0,0.5],[1,0.5]];portConstraint=eastwest;rounded=0;shadow=0;html=0;" vertex="1" parent="3GmIEutji8pc6yviIONt-61">
          <mxGeometry y="52" width="160" height="26" as="geometry" />
        </mxCell>
        <mxCell id="3GmIEutji8pc6yviIONt-65" value="" style="line;html=1;strokeWidth=1;align=left;verticalAlign=middle;spacingTop=-1;spacingLeft=3;spacingRight=3;rotatable=0;labelPosition=right;points=[];portConstraint=eastwest;strokeColor=none;" vertex="1" parent="3GmIEutji8pc6yviIONt-61">
          <mxGeometry y="78" width="160" height="4" as="geometry" />
        </mxCell>
        <mxCell id="3GmIEutji8pc6yviIONt-66" value="completed (default = false)" style="text;align=left;verticalAlign=top;spacingLeft=4;spacingRight=4;overflow=hidden;rotatable=0;points=[[0,0.5],[1,0.5]];portConstraint=eastwest;rounded=0;shadow=0;html=0;" vertex="1" parent="3GmIEutji8pc6yviIONt-61">
          <mxGeometry y="82" width="160" height="26" as="geometry" />
        </mxCell>
        <mxCell id="3GmIEutji8pc6yviIONt-67" value="#usercreationform사용한다&#xa;가정&#xa;id(username),&#xa;password1,2, email" style="text;align=left;verticalAlign=top;spacingLeft=4;spacingRight=4;overflow=hidden;rotatable=0;points=[[0,0.5],[1,0.5]];portConstraint=eastwest;strokeColor=none;fillColor=#dae8fc;" vertex="1" parent="3GmIEutji8pc6yviIONt-61">
          <mxGeometry y="108" width="160" height="72" as="geometry" />
        </mxCell>
        <mxCell id="3GmIEutji8pc6yviIONt-69" value="models(kwshinmoongo)" style="swimlane;fontStyle=2;align=center;verticalAlign=top;childLayout=stackLayout;horizontal=1;startSize=26;horizontalStack=0;resizeParent=1;resizeLast=0;collapsible=1;marginBottom=0;rounded=0;shadow=0;strokeWidth=1;fillColor=#dae8fc;strokeColor=#6c8ebf;" vertex="1" collapsed="1" parent="1">
          <mxGeometry x="-40" y="52" width="160" height="26" as="geometry">
            <mxRectangle x="-40" y="52" width="160" height="186" as="alternateBounds" />
          </mxGeometry>
        </mxCell>
        <mxCell id="3GmIEutji8pc6yviIONt-70" value="title" style="text;align=left;verticalAlign=top;spacingLeft=4;spacingRight=4;overflow=hidden;rotatable=0;points=[[0,0.5],[1,0.5]];portConstraint=eastwest;" vertex="1" parent="3GmIEutji8pc6yviIONt-69">
          <mxGeometry y="26" width="160" height="26" as="geometry" />
        </mxCell>
        <mxCell id="3GmIEutji8pc6yviIONt-71" value="description" style="text;align=left;verticalAlign=top;spacingLeft=4;spacingRight=4;overflow=hidden;rotatable=0;points=[[0,0.5],[1,0.5]];portConstraint=eastwest;rounded=0;shadow=0;html=0;" vertex="1" parent="3GmIEutji8pc6yviIONt-69">
          <mxGeometry y="52" width="160" height="26" as="geometry" />
        </mxCell>
        <mxCell id="3GmIEutji8pc6yviIONt-72" value="created_at (date) (auto)" style="text;align=left;verticalAlign=top;spacingLeft=4;spacingRight=4;overflow=hidden;rotatable=0;points=[[0,0.5],[1,0.5]];portConstraint=eastwest;rounded=0;shadow=0;html=0;" vertex="1" parent="3GmIEutji8pc6yviIONt-69">
          <mxGeometry y="78" width="160" height="26" as="geometry" />
        </mxCell>
        <mxCell id="3GmIEutji8pc6yviIONt-73" value="" style="line;html=1;strokeWidth=1;align=left;verticalAlign=middle;spacingTop=-1;spacingLeft=3;spacingRight=3;rotatable=0;labelPosition=right;points=[];portConstraint=eastwest;strokeColor=none;" vertex="1" parent="3GmIEutji8pc6yviIONt-69">
          <mxGeometry y="104" width="160" height="4" as="geometry" />
        </mxCell>
        <mxCell id="3GmIEutji8pc6yviIONt-74" value="completed (default = false)" style="text;align=left;verticalAlign=top;spacingLeft=4;spacingRight=4;overflow=hidden;rotatable=0;points=[[0,0.5],[1,0.5]];portConstraint=eastwest;rounded=0;shadow=0;html=0;" vertex="1" parent="3GmIEutji8pc6yviIONt-69">
          <mxGeometry y="108" width="160" height="26" as="geometry" />
        </mxCell>
        <mxCell id="3GmIEutji8pc6yviIONt-75" value="important (default = false)" style="text;align=left;verticalAlign=top;spacingLeft=4;spacingRight=4;overflow=hidden;rotatable=0;points=[[0,0.5],[1,0.5]];portConstraint=eastwest;" vertex="1" parent="3GmIEutji8pc6yviIONt-69">
          <mxGeometry y="134" width="160" height="26" as="geometry" />
        </mxCell>
        <mxCell id="3GmIEutji8pc6yviIONt-76" value="primary key(id)" style="text;align=left;verticalAlign=top;spacingLeft=4;spacingRight=4;overflow=hidden;rotatable=0;points=[[0,0.5],[1,0.5]];portConstraint=eastwest;" vertex="1" parent="3GmIEutji8pc6yviIONt-69">
          <mxGeometry y="160" width="160" height="26" as="geometry" />
        </mxCell>
        <mxCell id="3GmIEutji8pc6yviIONt-77" value="models(kwopgg)" style="swimlane;fontStyle=2;align=center;verticalAlign=top;childLayout=stackLayout;horizontal=1;startSize=26;horizontalStack=0;resizeParent=1;resizeLast=0;collapsible=1;marginBottom=0;rounded=0;shadow=0;strokeWidth=1;fillColor=#e1d5e7;strokeColor=#9673a6;" vertex="1" collapsed="1" parent="1">
          <mxGeometry x="-210" y="254" width="160" height="26" as="geometry">
            <mxRectangle x="-210" y="254" width="160" height="186" as="alternateBounds" />
          </mxGeometry>
        </mxCell>
        <mxCell id="3GmIEutji8pc6yviIONt-78" value="title" style="text;align=left;verticalAlign=top;spacingLeft=4;spacingRight=4;overflow=hidden;rotatable=0;points=[[0,0.5],[1,0.5]];portConstraint=eastwest;" vertex="1" parent="3GmIEutji8pc6yviIONt-77">
          <mxGeometry y="26" width="160" height="26" as="geometry" />
        </mxCell>
        <mxCell id="3GmIEutji8pc6yviIONt-79" value="description" style="text;align=left;verticalAlign=top;spacingLeft=4;spacingRight=4;overflow=hidden;rotatable=0;points=[[0,0.5],[1,0.5]];portConstraint=eastwest;rounded=0;shadow=0;html=0;" vertex="1" parent="3GmIEutji8pc6yviIONt-77">
          <mxGeometry y="52" width="160" height="26" as="geometry" />
        </mxCell>
        <mxCell id="3GmIEutji8pc6yviIONt-80" value="created_at (date) (auto)" style="text;align=left;verticalAlign=top;spacingLeft=4;spacingRight=4;overflow=hidden;rotatable=0;points=[[0,0.5],[1,0.5]];portConstraint=eastwest;rounded=0;shadow=0;html=0;" vertex="1" parent="3GmIEutji8pc6yviIONt-77">
          <mxGeometry y="78" width="160" height="26" as="geometry" />
        </mxCell>
        <mxCell id="3GmIEutji8pc6yviIONt-81" value="" style="line;html=1;strokeWidth=1;align=left;verticalAlign=middle;spacingTop=-1;spacingLeft=3;spacingRight=3;rotatable=0;labelPosition=right;points=[];portConstraint=eastwest;strokeColor=none;" vertex="1" parent="3GmIEutji8pc6yviIONt-77">
          <mxGeometry y="104" width="160" height="4" as="geometry" />
        </mxCell>
        <mxCell id="3GmIEutji8pc6yviIONt-82" value="completed (default = false)" style="text;align=left;verticalAlign=top;spacingLeft=4;spacingRight=4;overflow=hidden;rotatable=0;points=[[0,0.5],[1,0.5]];portConstraint=eastwest;rounded=0;shadow=0;html=0;" vertex="1" parent="3GmIEutji8pc6yviIONt-77">
          <mxGeometry y="108" width="160" height="26" as="geometry" />
        </mxCell>
        <mxCell id="3GmIEutji8pc6yviIONt-83" value="important (default = false)" style="text;align=left;verticalAlign=top;spacingLeft=4;spacingRight=4;overflow=hidden;rotatable=0;points=[[0,0.5],[1,0.5]];portConstraint=eastwest;" vertex="1" parent="3GmIEutji8pc6yviIONt-77">
          <mxGeometry y="134" width="160" height="26" as="geometry" />
        </mxCell>
        <mxCell id="3GmIEutji8pc6yviIONt-84" value="primary key(id)" style="text;align=left;verticalAlign=top;spacingLeft=4;spacingRight=4;overflow=hidden;rotatable=0;points=[[0,0.5],[1,0.5]];portConstraint=eastwest;" vertex="1" parent="3GmIEutji8pc6yviIONt-77">
          <mxGeometry y="160" width="160" height="26" as="geometry" />
        </mxCell>
        <mxCell id="3GmIEutji8pc6yviIONt-85" value="models(placeborrow)" style="swimlane;fontStyle=2;align=center;verticalAlign=top;childLayout=stackLayout;horizontal=1;startSize=26;horizontalStack=0;resizeParent=1;resizeLast=0;collapsible=1;marginBottom=0;rounded=0;shadow=0;strokeWidth=1;fillColor=#f8cecc;strokeColor=#b85450;" vertex="1" collapsed="1" parent="1">
          <mxGeometry x="-40" y="254" width="160" height="26" as="geometry">
            <mxRectangle x="-40" y="254" width="160" height="186" as="alternateBounds" />
          </mxGeometry>
        </mxCell>
        <mxCell id="3GmIEutji8pc6yviIONt-86" value="title" style="text;align=left;verticalAlign=top;spacingLeft=4;spacingRight=4;overflow=hidden;rotatable=0;points=[[0,0.5],[1,0.5]];portConstraint=eastwest;" vertex="1" parent="3GmIEutji8pc6yviIONt-85">
          <mxGeometry y="26" width="160" height="26" as="geometry" />
        </mxCell>
        <mxCell id="3GmIEutji8pc6yviIONt-87" value="description" style="text;align=left;verticalAlign=top;spacingLeft=4;spacingRight=4;overflow=hidden;rotatable=0;points=[[0,0.5],[1,0.5]];portConstraint=eastwest;rounded=0;shadow=0;html=0;" vertex="1" parent="3GmIEutji8pc6yviIONt-85">
          <mxGeometry y="52" width="160" height="26" as="geometry" />
        </mxCell>
        <mxCell id="3GmIEutji8pc6yviIONt-88" value="created_at (date) (auto)" style="text;align=left;verticalAlign=top;spacingLeft=4;spacingRight=4;overflow=hidden;rotatable=0;points=[[0,0.5],[1,0.5]];portConstraint=eastwest;rounded=0;shadow=0;html=0;" vertex="1" parent="3GmIEutji8pc6yviIONt-85">
          <mxGeometry y="78" width="160" height="26" as="geometry" />
        </mxCell>
        <mxCell id="3GmIEutji8pc6yviIONt-89" value="" style="line;html=1;strokeWidth=1;align=left;verticalAlign=middle;spacingTop=-1;spacingLeft=3;spacingRight=3;rotatable=0;labelPosition=right;points=[];portConstraint=eastwest;strokeColor=none;" vertex="1" parent="3GmIEutji8pc6yviIONt-85">
          <mxGeometry y="104" width="160" height="4" as="geometry" />
        </mxCell>
        <mxCell id="3GmIEutji8pc6yviIONt-90" value="completed (default = false)" style="text;align=left;verticalAlign=top;spacingLeft=4;spacingRight=4;overflow=hidden;rotatable=0;points=[[0,0.5],[1,0.5]];portConstraint=eastwest;rounded=0;shadow=0;html=0;" vertex="1" parent="3GmIEutji8pc6yviIONt-85">
          <mxGeometry y="108" width="160" height="26" as="geometry" />
        </mxCell>
        <mxCell id="3GmIEutji8pc6yviIONt-91" value="important (default = false)" style="text;align=left;verticalAlign=top;spacingLeft=4;spacingRight=4;overflow=hidden;rotatable=0;points=[[0,0.5],[1,0.5]];portConstraint=eastwest;" vertex="1" parent="3GmIEutji8pc6yviIONt-85">
          <mxGeometry y="134" width="160" height="26" as="geometry" />
        </mxCell>
        <mxCell id="3GmIEutji8pc6yviIONt-92" value="primary key(id)" style="text;align=left;verticalAlign=top;spacingLeft=4;spacingRight=4;overflow=hidden;rotatable=0;points=[[0,0.5],[1,0.5]];portConstraint=eastwest;" vertex="1" parent="3GmIEutji8pc6yviIONt-85">
          <mxGeometry y="160" width="160" height="26" as="geometry" />
        </mxCell>
        <mxCell id="3GmIEutji8pc6yviIONt-93" value="&lt;font style=&quot;font-size: 25px;&quot;&gt;ERD&lt;/font&gt;" style="rounded=0;whiteSpace=wrap;html=1;fontStyle=1" vertex="1" parent="1">
          <mxGeometry x="460" y="238" width="135" height="60" as="geometry" />
        </mxCell>
        <mxCell id="3GmIEutji8pc6yviIONt-94" value="method(kwopgg)" style="swimlane;fontStyle=3;align=center;verticalAlign=top;childLayout=stackLayout;horizontal=1;startSize=50;horizontalStack=0;resizeParent=1;resizeLast=0;collapsible=1;marginBottom=0;rounded=0;shadow=0;strokeWidth=1;fillColor=#e1d5e7;strokeColor=#9673a6;" vertex="1" collapsed="1" parent="1">
          <mxGeometry x="-560" y="650" width="160" height="50" as="geometry">
            <mxRectangle x="-560" y="650" width="160" height="186" as="alternateBounds" />
          </mxGeometry>
        </mxCell>
        <mxCell id="3GmIEutji8pc6yviIONt-95" value="title" style="text;align=left;verticalAlign=top;spacingLeft=4;spacingRight=4;overflow=hidden;rotatable=0;points=[[0,0.5],[1,0.5]];portConstraint=eastwest;" vertex="1" parent="3GmIEutji8pc6yviIONt-94">
          <mxGeometry y="26" width="160" height="26" as="geometry" />
        </mxCell>
        <mxCell id="3GmIEutji8pc6yviIONt-96" value="description" style="text;align=left;verticalAlign=top;spacingLeft=4;spacingRight=4;overflow=hidden;rotatable=0;points=[[0,0.5],[1,0.5]];portConstraint=eastwest;rounded=0;shadow=0;html=0;" vertex="1" parent="3GmIEutji8pc6yviIONt-94">
          <mxGeometry y="52" width="160" height="26" as="geometry" />
        </mxCell>
        <mxCell id="3GmIEutji8pc6yviIONt-97" value="created_at (date) (auto)" style="text;align=left;verticalAlign=top;spacingLeft=4;spacingRight=4;overflow=hidden;rotatable=0;points=[[0,0.5],[1,0.5]];portConstraint=eastwest;rounded=0;shadow=0;html=0;" vertex="1" parent="3GmIEutji8pc6yviIONt-94">
          <mxGeometry y="78" width="160" height="26" as="geometry" />
        </mxCell>
        <mxCell id="3GmIEutji8pc6yviIONt-98" value="" style="line;html=1;strokeWidth=1;align=left;verticalAlign=middle;spacingTop=-1;spacingLeft=3;spacingRight=3;rotatable=0;labelPosition=right;points=[];portConstraint=eastwest;strokeColor=none;" vertex="1" parent="3GmIEutji8pc6yviIONt-94">
          <mxGeometry y="104" width="160" height="4" as="geometry" />
        </mxCell>
        <mxCell id="3GmIEutji8pc6yviIONt-99" value="completed (default = false)" style="text;align=left;verticalAlign=top;spacingLeft=4;spacingRight=4;overflow=hidden;rotatable=0;points=[[0,0.5],[1,0.5]];portConstraint=eastwest;rounded=0;shadow=0;html=0;" vertex="1" parent="3GmIEutji8pc6yviIONt-94">
          <mxGeometry y="108" width="160" height="26" as="geometry" />
        </mxCell>
        <mxCell id="3GmIEutji8pc6yviIONt-100" value="important (default = false)" style="text;align=left;verticalAlign=top;spacingLeft=4;spacingRight=4;overflow=hidden;rotatable=0;points=[[0,0.5],[1,0.5]];portConstraint=eastwest;" vertex="1" parent="3GmIEutji8pc6yviIONt-94">
          <mxGeometry y="134" width="160" height="26" as="geometry" />
        </mxCell>
        <mxCell id="3GmIEutji8pc6yviIONt-101" value="primary key(id)" style="text;align=left;verticalAlign=top;spacingLeft=4;spacingRight=4;overflow=hidden;rotatable=0;points=[[0,0.5],[1,0.5]];portConstraint=eastwest;" vertex="1" parent="3GmIEutji8pc6yviIONt-94">
          <mxGeometry y="160" width="160" height="26" as="geometry" />
        </mxCell>
        <mxCell id="3GmIEutji8pc6yviIONt-102" value="method(placeborrow)" style="swimlane;fontStyle=3;align=center;verticalAlign=top;childLayout=stackLayout;horizontal=1;startSize=50;horizontalStack=0;resizeParent=1;resizeLast=0;collapsible=1;marginBottom=0;rounded=0;shadow=0;strokeWidth=1;fillColor=#f8cecc;strokeColor=#b85450;" vertex="1" collapsed="1" parent="1">
          <mxGeometry x="50" y="455" width="160" height="50" as="geometry">
            <mxRectangle x="-560" y="650" width="160" height="186" as="alternateBounds" />
          </mxGeometry>
        </mxCell>
        <mxCell id="3GmIEutji8pc6yviIONt-103" value="title" style="text;align=left;verticalAlign=top;spacingLeft=4;spacingRight=4;overflow=hidden;rotatable=0;points=[[0,0.5],[1,0.5]];portConstraint=eastwest;" vertex="1" parent="3GmIEutji8pc6yviIONt-102">
          <mxGeometry y="26" width="160" height="26" as="geometry" />
        </mxCell>
        <mxCell id="3GmIEutji8pc6yviIONt-104" value="description" style="text;align=left;verticalAlign=top;spacingLeft=4;spacingRight=4;overflow=hidden;rotatable=0;points=[[0,0.5],[1,0.5]];portConstraint=eastwest;rounded=0;shadow=0;html=0;" vertex="1" parent="3GmIEutji8pc6yviIONt-102">
          <mxGeometry y="52" width="160" height="26" as="geometry" />
        </mxCell>
        <mxCell id="3GmIEutji8pc6yviIONt-105" value="created_at (date) (auto)" style="text;align=left;verticalAlign=top;spacingLeft=4;spacingRight=4;overflow=hidden;rotatable=0;points=[[0,0.5],[1,0.5]];portConstraint=eastwest;rounded=0;shadow=0;html=0;" vertex="1" parent="3GmIEutji8pc6yviIONt-102">
          <mxGeometry y="78" width="160" height="26" as="geometry" />
        </mxCell>
        <mxCell id="3GmIEutji8pc6yviIONt-106" value="" style="line;html=1;strokeWidth=1;align=left;verticalAlign=middle;spacingTop=-1;spacingLeft=3;spacingRight=3;rotatable=0;labelPosition=right;points=[];portConstraint=eastwest;strokeColor=none;" vertex="1" parent="3GmIEutji8pc6yviIONt-102">
          <mxGeometry y="104" width="160" height="4" as="geometry" />
        </mxCell>
        <mxCell id="3GmIEutji8pc6yviIONt-107" value="completed (default = false)" style="text;align=left;verticalAlign=top;spacingLeft=4;spacingRight=4;overflow=hidden;rotatable=0;points=[[0,0.5],[1,0.5]];portConstraint=eastwest;rounded=0;shadow=0;html=0;" vertex="1" parent="3GmIEutji8pc6yviIONt-102">
          <mxGeometry y="108" width="160" height="26" as="geometry" />
        </mxCell>
        <mxCell id="3GmIEutji8pc6yviIONt-108" value="important (default = false)" style="text;align=left;verticalAlign=top;spacingLeft=4;spacingRight=4;overflow=hidden;rotatable=0;points=[[0,0.5],[1,0.5]];portConstraint=eastwest;" vertex="1" parent="3GmIEutji8pc6yviIONt-102">
          <mxGeometry y="134" width="160" height="26" as="geometry" />
        </mxCell>
        <mxCell id="3GmIEutji8pc6yviIONt-109" value="primary key(id)" style="text;align=left;verticalAlign=top;spacingLeft=4;spacingRight=4;overflow=hidden;rotatable=0;points=[[0,0.5],[1,0.5]];portConstraint=eastwest;" vertex="1" parent="3GmIEutji8pc6yviIONt-102">
          <mxGeometry y="160" width="160" height="26" as="geometry" />
        </mxCell>
        <mxCell id="3GmIEutji8pc6yviIONt-110" value="method(kwshinmoongo)" style="swimlane;fontStyle=3;align=center;verticalAlign=top;childLayout=stackLayout;horizontal=1;startSize=50;horizontalStack=0;resizeParent=1;resizeLast=0;collapsible=1;marginBottom=0;rounded=0;shadow=0;strokeWidth=1;fillColor=#dae8fc;strokeColor=#6c8ebf;" vertex="1" collapsed="1" parent="1">
          <mxGeometry x="-1200" y="455" width="160" height="50" as="geometry">
            <mxRectangle x="-560" y="650" width="160" height="186" as="alternateBounds" />
          </mxGeometry>
        </mxCell>
        <mxCell id="3GmIEutji8pc6yviIONt-111" value="title" style="text;align=left;verticalAlign=top;spacingLeft=4;spacingRight=4;overflow=hidden;rotatable=0;points=[[0,0.5],[1,0.5]];portConstraint=eastwest;" vertex="1" parent="3GmIEutji8pc6yviIONt-110">
          <mxGeometry y="26" width="160" height="26" as="geometry" />
        </mxCell>
        <mxCell id="3GmIEutji8pc6yviIONt-112" value="description" style="text;align=left;verticalAlign=top;spacingLeft=4;spacingRight=4;overflow=hidden;rotatable=0;points=[[0,0.5],[1,0.5]];portConstraint=eastwest;rounded=0;shadow=0;html=0;" vertex="1" parent="3GmIEutji8pc6yviIONt-110">
          <mxGeometry y="52" width="160" height="26" as="geometry" />
        </mxCell>
        <mxCell id="3GmIEutji8pc6yviIONt-113" value="created_at (date) (auto)" style="text;align=left;verticalAlign=top;spacingLeft=4;spacingRight=4;overflow=hidden;rotatable=0;points=[[0,0.5],[1,0.5]];portConstraint=eastwest;rounded=0;shadow=0;html=0;" vertex="1" parent="3GmIEutji8pc6yviIONt-110">
          <mxGeometry y="78" width="160" height="26" as="geometry" />
        </mxCell>
        <mxCell id="3GmIEutji8pc6yviIONt-114" value="" style="line;html=1;strokeWidth=1;align=left;verticalAlign=middle;spacingTop=-1;spacingLeft=3;spacingRight=3;rotatable=0;labelPosition=right;points=[];portConstraint=eastwest;strokeColor=none;" vertex="1" parent="3GmIEutji8pc6yviIONt-110">
          <mxGeometry y="104" width="160" height="4" as="geometry" />
        </mxCell>
        <mxCell id="3GmIEutji8pc6yviIONt-115" value="completed (default = false)" style="text;align=left;verticalAlign=top;spacingLeft=4;spacingRight=4;overflow=hidden;rotatable=0;points=[[0,0.5],[1,0.5]];portConstraint=eastwest;rounded=0;shadow=0;html=0;" vertex="1" parent="3GmIEutji8pc6yviIONt-110">
          <mxGeometry y="108" width="160" height="26" as="geometry" />
        </mxCell>
        <mxCell id="3GmIEutji8pc6yviIONt-116" value="important (default = false)" style="text;align=left;verticalAlign=top;spacingLeft=4;spacingRight=4;overflow=hidden;rotatable=0;points=[[0,0.5],[1,0.5]];portConstraint=eastwest;" vertex="1" parent="3GmIEutji8pc6yviIONt-110">
          <mxGeometry y="134" width="160" height="26" as="geometry" />
        </mxCell>
        <mxCell id="3GmIEutji8pc6yviIONt-117" value="primary key(id)" style="text;align=left;verticalAlign=top;spacingLeft=4;spacingRight=4;overflow=hidden;rotatable=0;points=[[0,0.5],[1,0.5]];portConstraint=eastwest;" vertex="1" parent="3GmIEutji8pc6yviIONt-110">
          <mxGeometry y="160" width="160" height="26" as="geometry" />
        </mxCell>
        <mxCell id="3GmIEutji8pc6yviIONt-118" value="기능분리" style="swimlane;childLayout=stackLayout;resizeParent=1;resizeParentMax=0;startSize=20;horizontal=0;horizontalStack=1;" vertex="1" parent="1">
          <mxGeometry x="-1160" y="-50" width="380" height="480" as="geometry" />
        </mxCell>
        <mxCell id="3GmIEutji8pc6yviIONt-119" value="Big" style="swimlane;startSize=20;" vertex="1" parent="3GmIEutji8pc6yviIONt-118">
          <mxGeometry x="20" width="120" height="480" as="geometry" />
        </mxCell>
        <mxCell id="3GmIEutji8pc6yviIONt-120" value="Middle" style="swimlane;startSize=20;" vertex="1" parent="3GmIEutji8pc6yviIONt-118">
          <mxGeometry x="140" width="120" height="480" as="geometry" />
        </mxCell>
        <mxCell id="3GmIEutji8pc6yviIONt-121" value="Small" style="swimlane;startSize=20;" vertex="1" parent="3GmIEutji8pc6yviIONt-118">
          <mxGeometry x="260" width="120" height="480" as="geometry" />
        </mxCell>
      </root>
    </mxGraphModel>
  </diagram>
</mxfile>
